<?xml version="1.0" encoding="utf-8"?>
<!-- Generator: Adobe Illustrator 16.0.0, SVG Export Plug-In . SVG Version: 6.00 Build 0)  -->
<!DOCTYPE svg PUBLIC "-//W3C//DTD SVG 1.1//EN" "http://www.w3.org/Graphics/SVG/1.1/DTD/svg11.dtd">
<svg version="1.1" id="Layer_1" xmlns="http://www.w3.org/2000/svg" xmlns:xlink="http://www.w3.org/1999/xlink" x="0px" y="0px"
	 width="165.023px" height="82.079px" viewBox="0 0 165.023 82.079" enable-background="new 0 0 165.023 82.079"
	 xml:space="preserve">
<g>
	<g id="XMLID_3_">
		<g>
			
				<rect x="-0.483" y="41.46" transform="matrix(-8.022029e-004 1 -1 -8.022029e-004 54.483 41.4816)" fill="#ED1E79" width="14" height="13"/>
			
				<rect x="-0.494" y="55.46" transform="matrix(-8.370120e-004 1 -1 -8.370120e-004 68.4717 55.5065)" fill="#ED1E79" width="14" height="13"/>
			
				<rect x="13.029" y="26.972" transform="matrix(-8.370120e-004 1 -1 -8.370120e-004 54.0172 13.9713)" fill="#ED1E79" width="14" height="14"/>
			
				<rect x="13.017" y="40.972" transform="matrix(-8.022029e-004 1 -1 -8.022029e-004 68.0051 27.9928)" fill="#ED1E79" width="14" height="14"/>
			
				<rect x="13.006" y="54.972" transform="matrix(-8.370120e-004 1 -1 -8.370120e-004 81.9943 42.0177)" fill="#ED1E79" width="14" height="14"/>
			
				<rect x="13.495" y="68.472" transform="matrix(-8.262832e-004 1 -1 -8.262832e-004 95.4828 55.5394)" fill="#FBB03B" width="13" height="14"/>
			
				<rect x="27.029" y="26.983" transform="matrix(-8.370120e-004 1 -1 -8.370120e-004 68.0402 -0.0174)" fill="#ED1E79" width="14" height="14"/>
			
				<rect x="27.017" y="40.983" transform="matrix(-8.022029e-004 1 -1 -8.022029e-004 82.0275 14.0041)" fill="#ED1E79" width="14" height="14"/>
			
				<rect x="41.54" y="13.494" transform="matrix(-8.262832e-004 1 -1 -8.262832e-004 68.5739 -27.5289)" fill="#A67C52" width="13" height="14"/>
			
				<rect x="41.029" y="26.994" transform="matrix(-8.370120e-004 1 -1 -8.370120e-004 82.0631 -14.0062)" fill="#A67C52" width="14" height="14"/>
			
				<rect x="41.017" y="40.994" transform="matrix(-8.022029e-004 1 -1 -8.022029e-004 96.05 0.0153)" fill="#A67C52" width="14" height="14"/>
			
				<rect x="41.006" y="54.994" transform="matrix(-8.370120e-004 1 -1 -8.370120e-004 110.0402 14.0402)" fill="#FBB03B" width="14" height="14"/>
			
				<rect x="54.551" y="0.505" transform="matrix(-8.022029e-004 1 -1 -8.022029e-004 68.6058 -54.54)" fill="#A67C52" width="14" height="13"/>
			
				<rect x="55.04" y="14.005" transform="matrix(-8.262832e-004 1 -1 -8.262832e-004 82.0963 -41.0177)" fill="#A67C52" width="13" height="13"/>
			
				<rect x="54.529" y="27.505" transform="matrix(-8.370120e-004 1 -1 -8.370120e-004 95.5857 -27.495)" fill="#754C24" width="14" height="13"/>
			
				<rect x="54.517" y="41.505" transform="matrix(-8.022029e-004 1 -1 -8.022029e-004 109.572 -13.4734)" fill="#754C24" width="14" height="13"/>
			
				<rect x="54.506" y="55.505" transform="matrix(-8.370120e-004 1 -1 -8.370120e-004 123.5627 0.5514)" fill="#A67C52" width="14" height="13"/>
			
				<rect x="54.995" y="69.005" transform="matrix(-8.262832e-004 1 -1 -8.262832e-004 137.0508 14.0732)" fill="#FBB03B" width="13" height="13"/>
			
				<rect x="68.051" y="0.017" transform="matrix(-8.022029e-004 1 -1 -8.022029e-004 82.1278 -68.0288)" fill="#A67C52" width="14" height="14"/>
			
				<rect x="68.54" y="13.517" transform="matrix(-8.262832e-004 1 -1 -8.262832e-004 95.6186 -54.5065)" fill="#754C24" width="13" height="14"/>
			
				<rect x="68.029" y="27.017" transform="matrix(-8.370120e-004 1 -1 -8.370120e-004 109.1082 -40.9837)" fill="#754C24" width="14" height="14"/>
			
				<rect x="68.017" y="41.017" transform="matrix(-8.022029e-004 1 -1 -8.022029e-004 123.0941 -26.9622)" fill="#754C24" width="14" height="14"/>
			
				<rect x="68.006" y="55.017" transform="matrix(-8.370120e-004 1 -1 -8.370120e-004 137.0852 -12.9373)" fill="#754C24" width="14" height="14"/>
			
				<rect x="68.495" y="68.517" transform="matrix(-8.262832e-004 1 -1 -8.262832e-004 150.5732 0.5844)" fill="#FBB03B" width="13" height="14"/>
			
				<rect x="82.051" y="0.028" transform="matrix(-8.022029e-004 1 -1 -8.022029e-004 96.1508 -82.017)" fill="#A67C52" width="14" height="14"/>
			
				<rect x="82.54" y="13.528" transform="matrix(-8.262832e-004 1 -1 -8.262832e-004 109.6419 -68.4947)" fill="#754C24" width="13" height="14"/>
			
				<rect x="82.029" y="27.028" transform="matrix(-8.370120e-004 1 -1 -8.370120e-004 123.1316 -54.972)" fill="#754C24" width="14" height="14"/>
			
				<rect x="82.017" y="41.028" transform="matrix(-8.022029e-004 1 -1 -8.022029e-004 137.1171 -40.9505)" fill="#754C24" width="14" height="14"/>
			
				<rect x="82.006" y="55.028" transform="matrix(-8.370120e-004 1 -1 -8.370120e-004 151.1087 -26.9256)" fill="#754C24" width="14" height="14"/>
			
				<rect x="82.495" y="68.528" transform="matrix(-8.262832e-004 1 -1 -8.262832e-004 164.5965 -13.4039)" fill="#FBB03B" width="13" height="14"/>
			
				<rect x="96.051" y="0.04" transform="matrix(-8.022029e-004 1 -1 -8.022029e-004 110.1737 -96.0053)" fill="#A67C52" width="14" height="14"/>
			
				<rect x="96.54" y="13.54" transform="matrix(-8.262832e-004 1 -1 -8.262832e-004 123.6652 -82.483)" fill="#A67C52" width="13" height="14"/>
			
				<rect x="96.029" y="27.04" transform="matrix(-8.370120e-004 1 -1 -8.370120e-004 137.1551 -68.9602)" fill="#754C24" width="14" height="14"/>
			
				<rect x="96.017" y="41.04" transform="matrix(-8.022029e-004 1 -1 -8.022029e-004 151.14 -54.9387)" fill="#754C24" width="14" height="14"/>
			
				<rect x="96.006" y="55.04" transform="matrix(-8.370120e-004 1 -1 -8.370120e-004 165.1321 -40.9139)" fill="#A67C52" width="14" height="14"/>
			
				<rect x="96.495" y="68.54" transform="matrix(-8.262832e-004 1 -1 -8.262832e-004 178.6198 -27.3921)" fill="#FBB03B" width="13" height="14"/>
			
				<rect x="110.04" y="14.051" transform="matrix(-8.262832e-004 1 -1 -8.262832e-004 137.1876 -95.9717)" fill="#A67C52" width="13" height="13"/>
			
				<rect x="109.529" y="27.551" transform="matrix(-8.370120e-004 1 -1 -8.370120e-004 150.6776 -82.449)" fill="#A67C52" width="14" height="13"/>
			
				<rect x="109.517" y="41.551" transform="matrix(-8.022029e-004 1 -1 -8.022029e-004 164.6621 -68.4275)" fill="#A67C52" width="14" height="13"/>
			
				<rect x="109.506" y="55.551" transform="matrix(-8.370120e-004 1 -1 -8.370120e-004 178.6539 -54.4029)" fill="#FBB03B" width="14" height="13"/>
			
				<rect x="123.029" y="27.062" transform="matrix(-8.370120e-004 1 -1 -8.370120e-004 164.1996 -95.9382)" fill="#ED1E79" width="14" height="14"/>
			
				<rect x="123.018" y="41.062" transform="matrix(-8.371312e-004 1 -1 -8.371312e-004 178.1874 -81.9153)" fill="#ED1E79" width="13.999" height="14"/>
			
				<rect x="137.029" y="27.073" transform="matrix(-8.370120e-004 1 -1 -8.370120e-004 178.2226 -109.927)" fill="#ED1E79" width="14" height="14"/>
			
				<rect x="137.017" y="41.073" transform="matrix(-8.370120e-004 1 -1 -8.370120e-004 192.2109 -95.9036)" fill="#ED1E79" width="14" height="14"/>
			
				<rect x="137.006" y="55.073" transform="matrix(-8.022029e-004 1 -1 -8.022029e-004 206.1944 -81.8825)" fill="#ED1E79" width="14" height="14"/>
			
				<rect x="137.495" y="68.573" transform="matrix(-8.262832e-004 1 -1 -8.262832e-004 219.6868 -68.3589)" fill="#FBB03B" width="13" height="14"/>
			
				<rect x="151.017" y="41.085" transform="matrix(-8.370120e-004 1 -1 -8.370120e-004 206.2343 -109.8918)" fill="#ED1E79" width="14" height="14"/>
			
				<rect x="151.006" y="55.085" transform="matrix(-8.022029e-004 1 -1 -8.022029e-004 220.2173 -95.8708)" fill="#ED1E79" width="14" height="14"/>
		</g>
		<g>
		</g>
	</g>
</g>
</svg>
